<svg data-name="Layer 1" xmlns="http://www.w3.org/2000/svg" viewBox="0 0 1177 874">
  <path d="M1084 212C950 27 668-49 391 32A525 525 0 0033 328C-93 626 170 721 342 751c84 15 162 39 234 73 128 60 356 113 528-138 125-182 69-350-20-474z" fill="#f2f2f2"/>
  <path d="M310 249a34 34 0 00-3-8 4 4 0 00-1-3 4 4 0 00-2 0l-11 2a4 4 0 00-2 1v5c0 2-2 4-4 5a15 15 0 01-6-1l-14-2a23 23 0 0010-7c2-2 3-6 0-7a7 7 0 00-2 0c-6 0-11-6-17-8a19 19 0 00-22 7h7a3 3 0 012 0c2 2 0 4 0 7 1 2 4 3 7 3s6 3 5 5c-14 5-28-9-43-8l-10 3c-22 6-45-9-67-6a85 85 0 00-15 4l-8 4c-2 2-4 7-1 9a49 49 0 01-18-1 10 10 0 015 8 102 102 0 00-26 8 44 44 0 006 7l-12 8c4 1 6 6 4 9 4-2 6-6 10-7 3-1 6 0 9 1s5 3 8 2 5-5 3-7a143 143 0 0136-6 5 5 0 013 1c2 1 1 3 1 5s2 5 3 4c-2 2 0 5 2 7s4 4 3 7l-1 2c-1 1 1 4 2 5l5 4c1 2 1 5-1 5l-6-8a15 15 0 00-4 8c6 5 7 15 2 21-3 4-7 5-10 8s-6 6-6 10c0 7-1 14 2 20a313 313 0 0017 36c1 3 4 6 7 7l-12-32c3 0 5 0 7 2l1 5a17 17 0 002 5l20 37c2 3 4 6 7 7l7 2 4 3c4 3 10-2 14 1l3 3c4 3 10 1 14 3 3 2 5 5 6 8 4 7 10 14 18 14l7 1c2 1 5 2 5 5-1 4 1 9 1 13-2 8-13 11-13 19l-1 5-2 6c-1 4 1 7 4 10s7 5 9 8l1 13c1 9 9 16 17 20l7 5c2 3 2 7 3 11 1 8 9 16 9 25 0 6-3 12-6 18a42 42 0 004 35l4 8 4 16c2 7 9 13 8 20 3 6 10 9 17 11l12 3c2 1 4 2 7 1s4-2 4-5c-6-1-12-2-17-6s-8-10-6-16c1-2 3-5 1-8l-4-2c-2-2-1-5 0-7l4-7a7 7 0 00-4-7 17 17 0 006-4c2-2 3-5 2-7 3 1 8 1 10-2 2-2 2-5 1-8l-2-9a156 156 0 0025-1 16 16 0 00-7-9c3-1 7-5 8-9v-12a6 6 0 010-3l3-2 19-11a11 11 0 003-3c2-2 2-5 1-8l-3-9c-2-9 8-15 11-24 2-3 2-7 2-11 1-3 1-8-2-10-3-3-8-2-11-4-2-2-3-6-6-8s-6-1-9-1c-6-1-9-8-14-8-3 0-7 1-9-1-2-1-3-4-3-7a21 21 0 00-17-17c-3 0-6 0-9-2l-6-7c-3-4-9-5-14-7l-20-4c-4-1-8-2-10 1a15 15 0 00-2 4 12 12 0 01-11 9 13 13 0 00-8-6l-6-2a9 9 0 01-4-12 11 11 0 00-2-13c-3-3-8-4-13-4-1-3 1-6 3-8s5-3 6-6c0-5-5-8-10-7s-7 6-9 10l-4 7c-2 2-4 3-7 3-3-1-5-5-5-9-2-5-3-10-2-15s2-10 5-14c6-5 16-5 24-4-2-2-2-6 0-8a9 9 0 018-2 11 11 0 017 4l4 10c1 3 6 6 9 4 3-1 4-5 3-8l-2-9c1-6 7-10 12-13s12-5 13-11a11 11 0 011-4 7 7 0 012-2c16-11 32-21 51-27h2c1-1 0-3-1-4l-3-3v-4c1-3-3-5-5-4-2-2 1-4 3-5a103 103 0 0122-3 4 4 0 013 0v4l-4 3a9 9 0 00-2 9c4 2 8 4 12 3s8-5 6-9c-2-3-7-4-8-8-1-5 5-9 4-13l-4-5a12 12 0 01-3-13 15 15 0 01-14-4c-3-4-5-9-10-9-4 0-8 5-12 4l-3-1a2 2 0 00-1 2c-1 5 1 10-2 14-2 5-9 6-12 10l-5 7c-2 2-5 4-7 2a10 10 0 00-3-13 27 27 0 00-6-3 36 36 0 01-7-3 7 7 0 01-2-3 6 6 0 010-4 17 17 0 0114-12c2 0 5 0 7-2l3-3a4 4 0 013 0l10 4a7 7 0 004 0 2 2 0 002-2c0-2-3-3-3-5a3 3 0 011-1 37 37 0 0129-12c1 3-1 5-2 7s-3 5-1 6a6 6 0 002 1 24 24 0 018 2l10 5v-7c1-3 4-3 6-2 2 0 3 3 5 3 3 1 4-4 3-6s-4-5-4-8c0-2 1-4-1-6a4 4 0 00-2 0l-39-8c-2 0-6 0-6 3l1 4-4 1c-2 1-3 3-3 6a15 15 0 003 6l-9-3zM279 216a13 13 0 00-14 4c-1 1-2 2-1 3h4a11 11 0 017 0l4 2a4 4 0 004-1l1-3a3 3 0 00-1-3 4 4 0 00-2 0 6 6 0 01-3-2M293 212a3 3 0 00-3 5 13 13 0 005 0 4 4 0 003-3 8 8 0 01-6-1M340 206a60 60 0 00-13 4 10 10 0 016 10 5 5 0 000 3l3 2a21 21 0 007 0 7 7 0 006-3 25 25 0 011-3c3-4 12 1 15-3 1-2 1-4 3-5a6 6 0 012-1 181 181 0 0120-3c3 0 7-2 7-5a54 54 0 00-35 5c-3 2-9 6-12 3l-3-4h-7z" fill="#3f3d56"/>
  <path d="M378 213l6 1a7 7 0 00-8 8h16c5 0 12 4 11 9v5l1 3c2 2 1 5-1 7l-4 5c-4 5-2 12 0 17a15 15 0 003 6c3 3 7 3 11 3 3 1 7 0 9-2 2-3 0-8 2-11 1-3 5-5 8-6l19-5c7-4 14-9 22-9l6-1c2-1 4-2 4-5l-3-4c-1-1-2-4-1-5l21-4c-2-4-3-10 1-12l4-3c1-2 0-5-2-7s-4-2-7-2h-27l-54 3-11 1-8 4c-6 1-12 0-18 4zM477 256a2 2 0 00-2 1 2 2 0 000 1 8 8 0 001 6 6 6 0 005 2l7-3c3-2 18-4 8-10-4-2-6 0-9 1a20 20 0 01-10 2zM567 210a6 6 0 00-3 2 3 3 0 001 3 4 4 0 001 1h5c2 0 5 0 6 2v5a3 3 0 002 0 11 11 0 005 1c3-1 1-4 3-6 1-2 1-1 4-2 2-2 5-4 3-7-3-6-22-2-27 1zM664 207h-3l-19 4a32 32 0 008 2 26 26 0 015 1c2 0 5 2 8 1l3-3 5-2c3-5-5-4-7-3zM676 220a53 53 0 00-10 7c-2 2-3 3-3 5s3 4 5 5l9 4c1-2 0-4-1-6s-3-3-2-5 3-3 5-3c4 0 13 0 12-6-1-7-12-3-15-1zM674 595c-1 2-1 5 1 7 1 3 5 4 8 3a14 14 0 007-5 25 25 0 004-6 51 51 0 003-12l3-14c1-4 1-14-5-10-2 0-6 8-7 10-4 3-4 7-6 11l-8 16zM995 671a44 44 0 01-5-3 49 49 0 00-3 16l13-8c2-1 5-3 5-5a2 2 0 00-1-2 2 2 0 00-1 0l-6 2h-6M1067 675a29 29 0 00-4 2l-8 6-9 5v3a6 6 0 004 1c3 0 7 0 9-2a31 31 0 005-3l11-7a13 13 0 004-2c3-3 3-7-1-8l-11 5zM1099 654a11 11 0 00-4-9c0 4 0 7-2 10l-5 5c-2 2-2 5 0 7a7 7 0 004 1c3 1 7 1 10-2l4-4a4 4 0 001-1c1-1 0-3-1-3l-4-1c-1-1-3-1-2-2M1043 529a16 16 0 01-6 0c-3 0-6-3-8-5a36 36 0 00-21-7c-7 0-14 2-21 0 1 3 3 5 5 6l7 2a17 17 0 018 9l2 5c3 3 7 4 11 3h14l9 7c3 2 7 4 10 3a17 17 0 01-11-17c3 0 12 0 12-5-1-5-9-2-11-1zM1000 567c0-3 3-6 2-9 0-2-3-3-5-3h-7a33 33 0 00-4 0c-4 1-7 6-11 8l-8 1c-6 2-10 7-14 12a50 50 0 01-26 15c-3 0-7 1-10 3-3 3-4 8-5 13a207 207 0 01-10 37l14 2h8a24 24 0 006-3 53 53 0 0121-8l11 1c4 1 6 4 7 8a9 9 0 018 2 15 15 0 015 9c0 2 0 4 2 5h5c5-1 10 6 15 4 6-1 8-9 13-11 3-1 8 0 10-3 1-3-2-6-2-9 1-3 5-5 8-6 12-6 17-21 12-33-3-6-10-12-11-19-1-6 1-12-2-17l-7-6v-6c0-2-2-3-4-3-5 1-7 17-10 21-4 6-13 2-11-5zM904 535h-6c-2 1-2 3-1 4 11 0 21-1 32 1 12 1 24 5 36 4a186 186 0 00-21-5l-12-2a93 93 0 00-10-2c-6 0-12 2-18 0zM914 498h-2v3l-3 1h-4a3 3 0 00-1 3 8 8 0 002 3 32 32 0 005 6c4 2 9 4 11 8a5 5 0 002 2l4-1 4-2a5 5 0 002-1c1-1 0-3-1-5l-1-4c0-3 4-4 5-6 2-3 1-6 1-9s2-8-1-10c-3-3-6-1-8 2-4 5-7 10-15 10zM940 447c1 3 4 4 6 7 1 3 1 7 3 9 2 3 6 5 7 8 1 4-2 8 0 11a5 5 0 007 1 5 5 0 000-7l-4-3a6 6 0 01-1-3 17 17 0 010-8 4 4 0 000-2l-3-2c-3-1-3-5-3-8 0 2-7-2-8-3-2-3-1-7-1-10-4 2-5 7-3 10zM863 489c-1-1-3-3-5-2-1 1-2 3-1 4a9 9 0 003 4l11 10c6 6 10 15 16 22a9 9 0 005 2c2 0 4-1 5-3l-2-4-8-8a7 7 0 01-2-4c0-2 1-4 3-3-2-1-4-4-6-4-3-1-3 1-6-1-5-2-9-9-13-13zM985 337a43 43 0 01-4-2c-4-1-9 2-9 6l4 6c2 4 2 8 1 12a9 9 0 01-2 3 11 11 0 01-3 3 46 46 0 00-14 11 3 3 0 000 2c-1 1 1 2 2 3v9a3 3 0 001 2c1 1 3 0 3-1 2-4 1-9 4-11l2-1v-3c1-2 3-2 5-2a25 25 0 008-1 6 6 0 003-1l1-5a64 64 0 00-8-23l9-1c2-1 4-4 3-6s-3 0-6 0zM596 381v6c-1 2-2 4-4 3-2 0-3-2-4-3-5-6-19-3-22-10-2-3-1-7-2-11a9 9 0 00-9-6 19 19 0 00-5 2 135 135 0 01-36 9 29 29 0 00-6 1c-5 2-9 6-11 11l-8 14-12 11a13 13 0 00-5 4v7l1 27 1 10 9 9a19 19 0 014 13c0 1-1 4 1 5a5 5 0 003 0l36 3c6 1 13 2 18 7 2 2 3 5 6 6l4-1c3 0 6 2 8 5a22 22 0 014 14l-2 9c-1 12 9 22 9 34 1 7-3 14-6 20 5 8 1 19 3 28s9 15 11 24c1 4 1 9 5 11a10 10 0 005 1 66 66 0 0030-6c4-3 9-6 10-11 0-4-2-8 0-11 3-4 9-4 12-7 6-5 1-15 4-22 2-7 9-10 12-16a28 28 0 003-8 114 114 0 003-20 122 122 0 011-13c4-23 28-39 35-62 1-2 1-5-1-6a6 6 0 00-3-1l-17 3-6-1c-2-1-4-3-3-5 3-5-3-12-5-17a250 250 0 00-25-40 4 4 0 01-1-3l5 1c-2-6-5-12-10-15h-10l-30-3z" fill="#3f3d56"/>
  <path d="M626 252c2 2 5 5 9 6 6 1 11-6 14-12a6 6 0 006 5 12 12 0 004-1 88 88 0 0142-11 4 4 0 013-5c3-1 6 2 7 5l5 7c3 2 6 2 7-1 1-2-2-5-4-6s-5-5-3-7c12-3 24-6 37-6a15 15 0 006-2c2 0 3-3 3-5a14 14 0 01-15-5c17-2 36-3 51 5 2 4-7 8-5 11l4 1c11 1 21 1 32-1l11-1c7 1 12 5 19 7l7-1c2-1 4-5 2-7 6-6 16-4 24-2s15 8 23 8h18l11 4 21 1a149 149 0 0153 11 16 16 0 016 3c2 2 3 4 2 7l-18-3c2 3 6 4 10 5s7 5 5 8c-4-1-8 2-10 6s-4 7-8 8c-3 0-7-3-10-1a69 69 0 018 13c3 5 4 11 1 15a4 4 0 01-2 2c-2 1-4-3-6-4-2-3-5-3-9-4s-6-4-6-7l2-6a22 22 0 001-10c0-2-1-5-3-7s-5-3-7-1l-3 2c-2 0-4-4-6-2a6 6 0 01-1 4c-5 5-13 3-20 4a39 39 0 00-10 4 6 6 0 00-3 3c-1 1 0 4 2 5a13 13 0 005 1c9 2 18 5 24 10s11 15 9 23l-17-16 2 20a9 9 0 01-1 4c-1 3-4 4-7 4a6 6 0 00-5 8l6 8c2 3 5 5 5 9s-2 7-6 7c-2 0-4-3-5-5l-4-7c-5-6-16-3-21-10a10 10 0 00-2 10c2-1 5 0 7 2l3 6c2 3 5 6 5 9a29 29 0 000 4c0 2 2 3 3 5 3 4 3 9 1 14s-5 8-8 12l-18 18c-2 1-4 2-5 5s-1 5 1 6l-5 1a113 113 0 010-15c-5-3-11 4-10 9s4 10 7 15c2 4 4 8 3 12s-4 8-8 7c-7 0-9-10-16-11a3 3 0 00-2 0l-1 3c0 6 0 11 2 16 3 7 11 13 9 21-9-4-13-14-15-24s-3-19-7-29c-3 4-9 1-11-3l-7-11c-3-3-6-7-10-8-5 0-9 3-12 6s-6 5-8 9c-2 5-2 11-2 16 0 6-1 13-5 17s-12 6-16 2c-3-2-4-5-5-8a397 397 0 01-12-44c-1 4-4 8-7 6a6 6 0 01-1-2c-5-9-15-14-25-17l-30-9a76 76 0 01-15-7 12 12 0 00-1 12c2 4 7 6 11 5l6-3c2-1 5-1 6 2v6c1 3 6 3 8 6 1 2 0 5-2 7l-6 4c-7 4-12 10-18 15s-15 9-22 6c2-9-9-15-11-24l-1-9c-1-4-5-6-8-10a39 39 0 01-10-28v-11c0-4-4-7-8-6-8 0-18 1-23-6-1-3-2-7 0-9l6-1 19 2c4 1 9 1 13-1s5-9 2-11-8-2-8-5c-1-3 2-6 0-8h-5l-4 4c-3 1-6 0-10-1s-7-1-9 2c-1 3 2 8 0 11-2 4-10 2-13 6-4 4 3 10 1 16a10 10 0 01-10-1 10 10 0 01-4-9c0-2 2-5 1-7l-5-4-18-10c-1 3 1 7 3 9s6 4 8 7a9 9 0 01-3 13 2 2 0 01-2 0 2 2 0 01-1-2c-3-8-8-16-16-20s-19-3-24 4l-3 5c-5 10-17 14-28 14a6 6 0 01-3-1c-2-1-2-4-1-6l1-9c0-2 0-4 2-5h7a10 10 0 009-7 11 11 0 00-3-11c-1-1-3-2-2-4a3 3 0 012-2c5-1 10-1 14-3s10-5 11-10l1-3a5 5 0 012-1 10 10 0 009-10c2-2 5-1 8 1l6 4c5 2 10-3 15-3h6c2 0 3-2 5-4s4-2 5-1l-1-9a18 18 0 0015-2l-16-5a3 3 0 01-2-1c-1-1 0-3 1-5 2-3 3-9-1-10-2-1-5 0-8 1l-11 7c0 2 2 3 4 5a7 7 0 01-4 11 8 8 0 011 7l-8 1a3 3 0 01-2-1l-1-3c0-3-3-4-6-5s-5 0-7 1a5 5 0 01-4 0 3 3 0 01-1-2c-1-3 0-6 2-8l6-6a38 38 0 0012-18l12-6a39 39 0 0122-4h14c4 0 8 0 12 2s8 5 8 9a3 3 0 01-1 3 3 3 0 01-2 0l-9 2zM511 297a4 4 0 001-5 8 8 0 00-8 2 14 14 0 00-2 3c-2 3-3 7-2 10a3 3 0 001 2 3 3 0 002 0 52 52 0 006 0l3-2v-5a5 5 0 011-2 3 3 0 001-2h-2" fill="#3f3d56"/>
  <path d="M522 283a17 17 0 00-6-1 2 2 0 00-1 1 2 2 0 000 1 5 5 0 003 6 7 7 0 012 1v6l3 6c-1 2-3 3-2 5 0 2 2 2 4 3a6 6 0 003-1 5 5 0 002-3 19 19 0 001-7 7 7 0 000-3 17 17 0 00-2-2c-4-4 0-10-7-12z" fill="#3f3d56"/>
  <path d="M991 608S718 451 600 481c0 0-249 27-278 86 0 0-79-248-108-256" fill="none" stroke="#1e6acb" stroke-miterlimit="10" stroke-width="2" opacity=".8"/>
  <path d="M322 567c46-123 459-258 459-258-59 15-181 172-181 172S343 293 214 311c0 0 567 18 777 297" fill="none" stroke="#1e6acb" stroke-miterlimit="10" stroke-width="2" opacity=".8"/>
  <circle cx="214.1" cy="310.6" r="12" fill="#1e6acb"/>
  <circle cx="322.2" cy="566.5" r="12" fill="#1e6acb"/>
  <circle cx="780.7" cy="309" r="12" fill="#1e6acb"/>
  <circle cx="991.2" cy="607.8" r="12" fill="#1e6acb"/>
  <circle cx="600.4" cy="480.7" r="12" fill="#1e6acb"/>
</svg>
