<svg data-name="Layer 1" xmlns="http://www.w3.org/2000/svg" viewBox="0 0 1026 721">
  <ellipse cx="521.8" cy="689.1" rx="503.7" ry="31.6" fill="#3f3d56"/>
  <path d="M39 658c11 22 36 31 36 31s6-26-6-47-36-31-36-31-6 26 6 47z" fill="#3f3d56"/>
  <path d="M47 651c20 13 29 38 29 38s-26 4-47-8-29-38-29-38 26-4 47 8z" fill="#1e6acb"/>
  <path fill="#f2f2f2" d="M102 88h825v26H102z"/>
  <path fill="#1e6acb" d="M927 681H102V504l91-78 734-56v311z"/>
  <circle cx="123.8" cy="101.1" r="6.8" fill="#1e6acb"/>
  <circle cx="145.9" cy="101.1" r="6.8" fill="#1e6acb"/>
  <circle cx="168" cy="101.1" r="6.8" fill="#1e6acb"/>
  <path fill="#fff" d="M102 504l825-135V115H102v389z"/>
  <path d="M835 560l-65-9 8-16c-2-1-14 8-14 8l10-46c-13 2-20 48-20 48l-16-15 8 17c-63-7-118-10-163-10l6-13c-2-1-14 8-14 8l10-46c-13 2-20 48-20 48l-16-15 8 18a916 916 0 00-94 7c7-21 31-41 31-41-18 5-28 14-33 23a369 369 0 0122-128s-38 83-33 138v10c-32 4-48 9-48 9zM161 264h231v9H161zM161 284h231v9H161zM161 305h78v9h-78z" fill="#3f3d56"/>
  <circle cx="488.1" cy="663.6" r="9.1" fill="#f2f2f2"/>
  <circle cx="514.4" cy="664.5" r="9.1" fill="#f2f2f2"/>
  <circle cx="540.7" cy="665.4" r="9.1" fill="#f2f2f2"/>
  <circle cx="514.5" cy="664.5" r="7.3" fill="#3f3d56"/>
  <circle cx="773.3" cy="133.2" r="84" fill="#ff6584"/>
  <path d="M832 234c16 113-45 162-128 175h-5l-12 1c-75 6-139-27-155-132C516 170 635 12 644 1V0s171 122 188 234z" fill="#1e6acb"/>
  <path d="M696 392l44-84-43 93 2 8-12 1-11-113v-1l-1-11-67-77 66 69 1 2-8-86-60-81 58 66L644 1V0v1l20 139 38-62-37 74 10 77 33-80-31 91 5 43 49-112-47 126z" fill="#3f3d56"/>
</svg>
